<svg preserveAspectRatio="none" overflow="visible" style="display: block;" width="20" height="20" viewBox="0 0 20 20" fill="none" xmlns="http://www.w3.org/2000/svg">
<g id="SVG">
<path id="Vector" d="M4.16667 5H15.8333C16.7538 5 17.5 5.74619 17.5 6.66667V15C17.5 15.9205 16.7538 16.6667 15.8333 16.6667H4.16667C3.24619 16.6667 2.5 15.9205 2.5 15V6.66667C2.5 5.74619 3.24619 5 4.16667 5V5" stroke="white" stroke-width="1.5" stroke-linecap="round" stroke-linejoin="round"/>
<path id="Vector_2" d="M6.66667 5L8.33333 2.5H11.6667L13.3333 5" stroke="white" stroke-width="1.5" stroke-linecap="round" stroke-linejoin="round"/>
<path id="Vector_3" d="M6.66667 10.8333C6.66667 12.673 8.16028 14.1667 10 14.1667C11.8397 14.1667 13.3333 12.673 13.3333 10.8333C13.3333 8.99362 11.8397 7.5 10 7.5C8.16028 7.5 6.66667 8.99362 6.66667 10.8333V10.8333" stroke="white" stroke-width="1.5" stroke-linecap="round" stroke-linejoin="round"/>
</g>
</svg>
